<svg id="Layer_1" data-name="Layer 1" xmlns="http://www.w3.org/2000/svg" viewBox="0 0 314 136.8" fill='black' stroke-width="3" stroke='rgb(229, 177, 58)'>
  <title>star_news</title>
  <g>
    <path d="M5.93,72.63V56.73h40.3a13.21,13.21,0,0,0,2.9-1.15q.9-.55.05-3a61.85,61.85,0,0,0-3.85-8q-3-5.5-8.9-16A20.82,20.82,0,0,1,34.13,20a13,13,0,0,1,1.8-7.25,13.18,13.18,0,0,1,5.8-5,23.13,23.13,0,0,1,9.9-1.85l36.9-.1,9,16.2H64q-2.1-.1-2.45.75t1.25,3.75q1.6,2.9,5.25,8.45t9.65,14.75a16.16,16.16,0,0,1,2.85,6.5,13.82,13.82,0,0,1-.4,7.55A12.39,12.39,0,0,1,75,70q-3.9,2.6-11.4,2.6Z" transform="translate(-4 -5.83)"/>
    <path d="M71.94,5.830V5.83h69.2v15.9h-23.5V72H94.94V20.5" transform="translate(-4 -5.83)"/>
    <path d="M187.13,72,183,60.23h-23.9L155.73,72h-24.1l18-65.9h43.3L211.43,72ZM163,45.93h17.2l-9.2-26Z" transform="translate(-4 -5.83)"/>
    <path d="M237.93,72h-24.5V6h37.8a53.45,53.45,0,0,1,11,1.15,29.09,29.09,0,0,1,9.75,3.9,21.31,21.31,0,0,1,7,7.25,20.92,20.92,0,0,1,2.55,11.1,38.16,38.16,0,0,1-1,9,22.19,22.19,0,0,1-2.4,5.9,14.42,14.42,0,0,1-3.2,3.75q-1.75,1.4-3.25,2.4l-2.8.9A6.07,6.07,0,0,1,269,53q0,1,1.7,1.75a22,22,0,0,0,5.9,1.35c2.8.37,34,.55,39.6.55v15.7h-47.7a38.15,38.15,0,0,1-9.75-3.45,47.1,47.1,0,0,1-7.85-5.2,67.4,67.4,0,0,1-6.75-6.35q-3.15-3.4-6.25-6.7Zm.2-48.6v13.1h9.1q9.1,0,12.6-1.55a5.58,5.58,0,0,0,3.5-5.55,4.41,4.41,0,0,0-.7-2.4,5.52,5.52,0,0,0-2.55-1.9,20.16,20.16,0,0,0-5-1.25,58.85,58.85,0,0,0-8-.45Z" transform="translate(-4 -5.83)"/>
    <path d="M5.93,142V76.13h21.2l27.6,36.4V76.13h33v16.2H75.68V142H54.28l-27.4-36.1V142Z" transform="translate(-4 -5.83)"/>
    <path d="M83.68,142.63V76h60.8v16.2h-38v9.7h35.2v14.6h-35.2v9.7h46.9v16.4Z" transform="translate(-4 -5.83)"/>
    <path d="M82,79.09v10.2h4v-10.2Z" stroke='black' transform="translate(-4 -5.83)"/>
    <path d="M165.78,142l-18.4-65.9h22.8l8.1,30.2,6.7-30.2h26.8l7.6,30.2,7.8-30.2h22.6L232.58,142h-25.8l-7.7-31.1-7,31.1Z" transform="translate(-4 -5.83)"/>
    <path d="M240.68,142.63v-15.9H274a13.21,13.21,0,0,0,2.9-1.15q.9-.55.05-3a61.83,61.83,0,0,0-3.85-8q-3-5.5-8.9-16a20.84,20.84,0,0,1-2.3-8.65,13,13,0,0,1,1.8-7.25,13.18,13.18,0,0,1,5.8-5,23.13,23.13,0,0,1,9.9-1.85l36.9-.1V92h-24.5q-2.1-.1-2.45.75t1.25,3.75q1.6,2.9,5.25,8.45t9.65,14.75a16.18,16.18,0,0,1,2.85,6.5,13.83,13.83,0,0,1-.4,7.55,12.39,12.39,0,0,1-5.15,6.25q-3.9,2.6-11.4,2.6Z" transform="translate(-4 -5.83)"/>
  </g>
</svg>
